:version 1.10
:name ASF
:units
  mass 1
  length 1
  angle deg
:documentation
  ASF file generated by Kaydara
:root
  axis xyz
  order  tx ty tz rx ry rz
  position 0 0 0
  orientation 0 0 0
:bonedata
  begin
    id 1
    name abdomenDummy
    direction 1 -1.27917e-005 -1.26829e-007
    length 1.79048
    axis 0 0 0 xyz
  end
  begin
    id 2
    name abdomen
    direction 0.987238 0.159249 -9.68575e-008
    length 8.61378
    axis 2.73208e-005 5.54953e-006 9.16328 xyz
    dof rx ry rz
  end
  begin
    id 3
    name chest
    direction 0 0 0
    length 0
    axis 2.65071e-005 8.63688e-006 2.59796 xyz
    dof rx ry rz
  end
  begin
    id 4
    name neckDummyDummy
    direction 0.998972 0.0453274 -1.50742e-007
    length 9.56202
    axis 2.65071e-005 8.63688e-006 2.59796 xyz
  end
  begin
    id 5
    name neckDummy
    direction 0.99977 0.0214525 -1.61748e-007
    length 1.93574
    axis 2.62932e-005 9.26758e-006 1.22924 xyz
    dof rx ry rz
  end
  begin
    id 6
    name neck
    direction 0.99928 -0.0379406 -1.88707e-007
    length 3.70367
    axis 2.56966e-005 1.08122e-005 -2.17436 xyz
    dof rx ry rz
  end
  begin
    id 7
    name head
    direction 0.992648 -0.121037 -2.25408e-007
    length 6.35158
    axis 2.47068e-005 1.29149e-005 -6.95196 xyz
    dof rx ry rz
  end
  begin
    id 8
    name figureHair
    direction -0.86681 -0.498639 -7.83376e-008
    length 8.29884
    axis -2.7515e-005 4.48842e-006 -150.09 xyz
    dof rx ry rz
  end
  begin
    id 9
    name lCollarDummy
    direction 0.994611 0.0451299 -0.0933417
    length 9.60395
    axis 2.65071e-005 8.63688e-006 2.59796 xyz
  end
  begin
    id 10
    name lCollar
    direction 0.0384146 0.00127577 -0.999261
    length 6.95318
    axis 90.4899 87.7973 1.90202 xyz
    dof rx ry rz
  end
  begin
    id 11
    name lShldr
    direction -0.030648 0.0920515 -0.995282
    length 9.61158
    axis -161.793 84.4324 108.415 xyz
    dof rx ry rz
  end
  begin
    id 12
    name lForeArm
    direction 0.000163956 -0.0977586 -0.99521
    length 8.6068
    axis 0.134773 84.3899 -89.8525 xyz
    dof rx ry rz
  end
  begin
    id 13
    name lHand
    direction -0.0190533 -0.1444 -0.989336
    length 7.61479
    axis -7.3729 81.6249 -97.517 xyz
    dof rx ry rz
  end
  begin
    id 14
    name rCollarDummy
    direction 0.994871 0.0442627 0.0909555
    length 9.60761
    axis 2.65071e-005 8.63688e-006 2.59796 xyz
  end
  begin
    id 15
    name rCollar
    direction 0.0334251 -4.74072e-007 0.999441
    length 6.97058
    axis -178.152 -88.0845 -0.000674207 xyz
    dof rx ry rz
  end
  begin
    id 16
    name rShldr
    direction -0.026922 0.0719509 0.997045
    length 9.60913
    axis 71.2822 -85.594 110.514 xyz
    dof rx ry rz
  end
  begin
    id 17
    name rForeArm
    direction 0.00134679 -0.118986 0.992895
    length 8.57176
    axis -88.7923 -83.1659 -89.3516 xyz
    dof rx ry rz
  end
  begin
    id 18
    name rHand
    direction -0.0185183 -0.0768601 0.99687
    length 7.69687
    axis -74.5596 -85.4655 -103.546 xyz
    dof rx ry rz
  end
  begin
    id 19
    name lThighDummy
    direction -0.236086 -0.0385456 -0.970967
    length 4.99155
    axis 0 0 0 xyz
  end
  begin
    id 20
    name lThigh
    direction -0.993968 0.0148998 -0.108653
    length 13.572
    axis -91.4001 6.23768 179.141 xyz
    dof rx ry rz
  end
  begin
    id 21
    name lShin
    direction -0.992341 0.0904576 -0.0841193
    length 18.5862
    axis -91.4558 4.82538 174.792 xyz
    dof rx ry rz
  end
  begin
    id 22
    name lFoot
    direction 0.0209381 -0.999771 -0.00453005
    length 8.44474
    axis 4.86759 0.259522 -88.8001 xyz
    dof rx ry rz
  end
  begin
    id 23
    name rThighDummy
    direction -0.236086 -0.0385456 0.970967
    length 4.99155
    axis 0 0 0 xyz
  end
  begin
    id 24
    name rThigh
    direction -0.993968 0.0148995 0.108653
    length 13.5721
    axis -89.7059 -6.2377 179.141 xyz
    dof rx ry rz
  end
  begin
    id 25
    name rShin
    direction -0.9925 0.0899962 0.0827255
    length 18.6716
    axis -89.2745 -4.74775 174.819 xyz
    dof rx ry rz
  end
  begin
    id 26
    name rFoot
    direction 0.0301721 -0.999545 9.70865e-005
    length 8.45013
    axis -2.50066e-005 -0.00555246 -88.271 xyz
    dof rx ry rz
  end
:hierarchy
  begin
    root abdomenDummy lThighDummy rThighDummy
    abdomenDummy abdomen
    abdomen chest
    chest neckDummyDummy lCollarDummy rCollarDummy
    neckDummyDummy neckDummy
    neckDummy neck
    neck head
    head figureHair
    lCollarDummy lCollar
    lCollar lShldr
    lShldr lForeArm
    lForeArm lHand
    rCollarDummy rCollar
    rCollar rShldr
    rShldr rForeArm
    rForeArm rHand
    lThighDummy lThigh
    lThigh lShin
    lShin lFoot
    rThighDummy rThigh
    rThigh rShin
    rShin rFoot
  end

:SAMPLES-PER-SECOND 25
:FULLY-SPECIFIED
:DEGREES
1690
root  5.93221 36.9084 0.497564 158.506 -0.62851 91.173
abdomen  -1.68294 5.40179 -8.36556
chest  -2.70883 -4.56277 -2.30983
neckDummy  9.09964e-021 0 8.72668e-016
neck  -1.43198 5.43363 7.48154
head  -2.81334 -13.2801 -10.8809
figureHair  0 1.51661e-021 -9.5315e-016
lCollar  -5.15695e-016 -6.42944e-016 -7.59357e-014
lShldr  19.1373 2.17727 -73.5727
lForeArm  20.241 -12.3733 -3.78276
lHand  0.254698 0.195082 5.2986
rCollar  1.7976e-016 -5.12864e-014 1.62755e-015
rShldr  -22.5044 73.6357 -0.813448
rForeArm  -0.805606 1.06097 22.6617
rHand  0.304444 -18.399 2.72902
lThigh  -7.92331 -1.63335 -1.35126
lShin  -29.6477 0.468642 -8.65641
lFoot  6.80552 -0.745469 -0.238036
rThigh  22.6657 -16.8179 -8.66753
rShin  19.7407 12.5116 7.50303
rFoot  -3.02107 0.0343237 -3.01194
1691
root  5.84872 36.8912 0.222974 154.959 -0.230225 91.1322
abdomen  -1.61922 5.39658 -8.44176
chest  -2.59691 -4.30796 -2.23269
neckDummy  9.09964e-021 0 8.72668e-016
neck  -2.95905 6.26259 7.05418
head  -4.39886 -14.9966 -11.3772
figureHair  0 1.51661e-021 -9.5315e-016
lCollar  -5.15695e-016 -6.42944e-016 -7.59357e-014
lShldr  19.7779 2.45741 -73.6194
lForeArm  19.374 -13.4839 -3.06137
lHand  0.254698 0.195082 5.2986
rCollar  1.7976e-016 -5.12864e-014 1.62755e-015
rShldr  -24.3247 73.1683 -2.77173
rForeArm  -0.883251 1.06079 22.7074
rHand  0.298943 -18.2778 2.74661
lThigh  -7.76736 -0.406871 -1.36946
lShin  -32.9804 -0.565464 -8.85415
lFoot  6.19843 -0.679086 -0.232725
rThigh  25.95 -16.5639 -9.6952
rShin  27.4644 11.3413 9.71363
rFoot  -4.56381 0.287967 -2.14959
1692
root  5.72325 36.8681 -0.123272 151.411 0.19371 90.8054
abdomen  -1.63328 5.51694 -8.36987
chest  -2.60567 -4.16285 -2.30256
neckDummy  9.09964e-021 0 8.72668e-016
neck  -4.44937 7.02764 5.93708
head  -5.91584 -16.5918 -11.6194
figureHair  0 1.51661e-021 -9.5315e-016
lCollar  -5.15695e-016 -6.42944e-016 -7.59357e-014
lShldr  20.7471 3.00588 -73.3919
lForeArm  18.4691 -15.0396 -2.12181
lHand  0.254698 0.195082 5.2986
rCollar  1.7976e-016 -5.12864e-014 1.62755e-015
rShldr  -26.6823 72.8834 -5.38853
rForeArm  -0.30375 1.0606 22.7732
rHand  0.337462 -18.4703 2.55389
lThigh  -7.67413 1.37919 -1.44273
lShin  -36.3815 -1.92956 -9.22904
lFoot  5.91119 -0.647526 -0.233813
rThigh  31.1518 -15.5716 -10.4239
rShin  35.1147 10.4886 12.0573
rFoot  -6.77961 0.725118 -0.708494
1693
root  5.56753 36.8034 -0.552285 147.618 0.740829 90.3075
abdomen  -1.65654 5.74745 -8.09299
chest  -2.64718 -4.10433 -2.45781
neckDummy  9.09964e-021 0 8.72668e-016
neck  -5.77338 7.83072 4.48
head  -7.26397 -17.9955 -11.8417
figureHair  0 1.51661e-021 -9.5315e-016
lCollar  -5.15695e-016 -6.42944e-016 -7.59357e-014
lShldr  21.0965 3.55514 -73.1441
lForeArm  18.0004 -16.3313 -1.43589
lHand  0.254698 0.195082 5.2986
rCollar  1.7976e-016 -5.12864e-014 1.62755e-015
rShldr  -29.109 72.6263 -8.00371
rForeArm  0.432875 1.0624 22.67
rHand  0.366187 -18.6146 2.41242
lThigh  -7.59998 3.13495 -1.6584
lShin  -39.8775 -2.72577 -9.62912
lFoot  5.60444 -0.62514 -0.0114289
rThigh  37.8294 -14.3913 -10.6994
rShin  39.1612 10.5907 13.4655
rFoot  -9.19097 1.38842 1.57489
1694
root  5.37436 36.6774 -1.07576 143.433 1.26077 89.3464
abdomen  -1.61341 5.95199 -7.60504
chest  -2.58004 -3.86262 -2.71455
neckDummy  9.09964e-021 0 8.72668e-016
neck  -6.82302 8.46229 2.85712
head  -8.31387 -18.8334 -11.941
figureHair  0 1.51661e-021 -9.5315e-016
lCollar  -5.15695e-016 -6.42944e-016 -7.59357e-014
lShldr  20.7553 4.15171 -72.8778
lForeArm  17.6511 -17.1402 -1.08582
lHand  0.254698 0.195082 5.2986
rCollar  1.7976e-016 -5.12864e-014 1.62755e-015
rShldr  -31.5514 72.4418 -10.4209
rForeArm  0.57937 1.06774 22.2413
rHand  0.378008 -18.4595 2.32785
lThigh  -7.65354 5.34212 -2.02514
lShin  -43.3161 -3.42148 -10.2917
lFoot  4.31998 -0.495009 0.336153
rThigh  38.7845 -13.4059 -10.398
rShin  43.3785 10.1959 14.1698
rFoot  -10.3293 1.9246 3.73197
1695
root  5.16541 36.5147 -1.73153 139.079 1.51846 88.3831
abdomen  -1.59019 5.75771 -6.7749
chest  -2.50422 -3.57229 -3.27208
neckDummy  9.09964e-021 0 8.72668e-016
neck  -7.61074 9.13105 1.4044
head  -9.11677 -19.3801 -12.1311
figureHair  0 1.51661e-021 -9.5315e-016
lCollar  -5.15695e-016 -6.42944e-016 -7.59357e-014
lShldr  20.1558 4.7429 -72.5172
lForeArm  17.4466 -17.4316 -0.980482
lHand  0.254698 0.195082 5.2986
rCollar  1.7976e-016 -5.12864e-014 1.62755e-015
rShldr  -34.162 72.3222 -12.7689
rForeArm  0.789866 1.07563 21.5383
rHand  0.388655 -18.456 2.26826
lThigh  -8.30042 7.5422 -1.93352
lShin  -46.5219 -3.36413 -11.4201
lFoot  3.08205 -0.370458 0.916522
rThigh  31.4909 -12.6838 -9.45888
rShin  51.0008 8.20163 15.1684
rFoot  -10.6439 1.99874 3.84268
1696
root  4.99873 36.3839 -2.51166 134.378 1.28851 88.0522
abdomen  -1.6068 4.35127 -5.64685
chest  -2.35451 -3.01148 -3.98914
neckDummy  9.09964e-021 0 8.72668e-016
neck  -8.06643 10.0997 0.367697
head  -9.65769 -20.086 -12.5088
figureHair  0 1.51661e-021 -9.5315e-016
lCollar  -5.15695e-016 -6.42944e-016 -7.59357e-014
lShldr  19.0948 5.36017 -72.3411
lForeArm  17.6524 -17.3659 -0.991562
lHand  0.254698 0.195082 5.2986
rCollar  1.7976e-016 -5.12864e-014 1.62755e-015
rShldr  -35.9906 72.2585 -13.9709
rForeArm  1.66365 1.0867 20.2236
rHand  0.378494 -18.6304 2.34724
lThigh  -10.0003 8.45016 -0.771411
lShin  -49.1756 -0.812337 -12.7415
lFoot  1.57602 -0.198901 1.6422
rThigh  24.7749 -12.9431 -7.67268
rShin  54.7841 7.28482 15.3944
rFoot  -11.8713 1.89758 2.30063
1697
root  4.90625 36.3292 -3.37052 128.455 0.708374 88.1492
abdomen  -1.52103 1.98266 -4.85908
chest  -1.94856 -1.97584 -4.36891
neckDummy  9.09964e-021 0 8.72668e-016
neck  -8.05011 10.9997 -0.579943
head  -9.77451 -20.5884 -12.6196
figureHair  0 1.51661e-021 -9.5315e-016
lCollar  -5.15695e-016 -6.42944e-016 -7.59357e-014
lShldr  17.1719 6.50912 -72.5552
lForeArm  17.8213 -17.535 -0.925464
lHand  0.254698 0.195082 5.2986
rCollar  1.7976e-016 -5.12864e-014 1.62755e-015
rShldr  -36.0027 72.411 -13.1965
rForeArm  2.46515 1.19487 18.2083
rHand  0.406006 -18.4344 2.16778
lThigh  -19.0083 9.51045 1.29467
lShin  -44.9873 4.01999 -13.1045
lFoot  -2.65452 0.347776 1.05784
rThigh  21.0299 -14.2635 -5.07803
rShin  52.3484 8.60198 14.7021
rFoot  -13.824 2.01205 1.49873
1698
root  4.89198 36.2727 -4.29844 122.131 0.0969543 88.1208
abdomen  -1.4895 0.313461 -4.6291
chest  -1.65779 -1.30004 -4.4103
neckDummy  9.09964e-021 0 8.72668e-016
neck  -7.67838 11.3937 -1.81426
head  -9.49705 -20.4488 -12.2627
figureHair  0 1.51661e-021 -9.5315e-016
lCollar  -5.15695e-016 -6.42944e-016 -7.59357e-014
lShldr  15.0679 8.47898 -72.7494
lForeArm  17.4325 -18.3768 -0.740983
lHand  0.254698 0.195082 5.2986
rCollar  1.7976e-016 -5.12864e-014 1.62755e-015
rShldr  -34.9636 72.7577 -12.1154
rForeArm  2.13712 1.54648 16.8318
rHand  0.488307 -17.784 1.60592
lThigh  -47.3168 8.85357 4.44645
lShin  -22.1986 16.9241 -6.53341
lFoot  -8.28041 0.651572 -1.4526
rThigh  17.9304 -15.5333 -2.20972
rShin  47.8748 11.0136 13.5094
rFoot  -15.0372 2.31388 2.08828
1699
root  4.9359 36.2286 -5.28062 116.563 -0.358322 87.8782
abdomen  -1.8039 0.128948 -4.4821
chest  -1.95001 -1.45436 -4.41257
neckDummy  9.09964e-021 0 8.72668e-016
neck  -7.25049 11.3713 -2.88063
head  -9.07592 -19.9216 -11.9287
figureHair  0 1.51661e-021 -9.5315e-016
lCollar  -5.15695e-016 -6.42944e-016 -7.59357e-014
lShldr  13.7616 10.5404 -72.5332
lForeArm  17.2566 -19.5405 -0.644055
lHand  0.254698 0.195082 5.2986
rCollar  1.7976e-016 -5.12864e-014 1.62755e-015
rShldr  -36.0476 72.8727 -12.8006
rForeArm  1.93817 1.3454 17.6855
rHand  0.50303 -17.0945 1.39948
lThigh  -61.3279 6.51723 8.552
lShin  -9.50566 27.2584 2.74846
lFoot  -6.80183 0.67948 -6.55355
rThigh  15.2622 -15.3613 0.128573
rShin  44.3127 12.234 12.6916
rFoot  -15.7975 2.59254 2.82648
1700
root  5.00222 36.221 -6.22209 111.529 -0.711838 87.5417
abdomen  -2.21372 0.119025 -4.66979
chest  -2.39269 -1.57998 -4.31691
neckDummy  9.09964e-021 0 8.72668e-016
neck  -6.92536 11.0672 -3.06361
head  -8.69787 -19.3041 -11.9151
figureHair  0 1.51661e-021 -9.5315e-016
lCollar  -5.15695e-016 -6.42944e-016 -7.59357e-014
lShldr  13.0953 11.5281 -72.291
lForeArm  17.947 -20.2993 -0.616947
lHand  0.254698 0.195082 5.2986
rCollar  1.7976e-016 -5.12864e-014 1.62755e-015
rShldr  -37.535 72.4099 -13.9673
rForeArm  1.69432 1.07214 20.2676
rHand  0.4512 -16.9886 1.68648
lThigh  -51.0533 2.35294 11.8751
lShin  -15.9164 35.8609 2.36723
lFoot  0.737802 -0.139179 -11.3593
rThigh  13.8172 -14.3349 1.78135
rShin  40.76 12.6949 12.2466
rFoot  -16.4219 2.84978 3.51378
1701
root  5.06613 36.243 -7.05494 106.02 -1.17491 87.0913
abdomen  -2.22147 -0.347177 -5.59015
chest  -2.34375 -1.14588 -4.12128
neckDummy  9.09964e-021 0 8.72668e-016
neck  -6.67382 10.4868 -2.78551
head  -8.37644 -18.6504 -11.8061
figureHair  0 1.51661e-021 -9.5315e-016
lCollar  -5.15695e-016 -6.42944e-016 -7.59357e-014
lShldr  11.952 11.1851 -72.5941
lForeArm  18.7975 -20.4663 -0.610022
lHand  0.254698 0.195082 5.2986
rCollar  1.7976e-016 -5.12864e-014 1.62755e-015
rShldr  -36.6467 71.7197 -12.8162
rForeArm  1.53667 1.06656 22.3397
rHand  0.43033 -17.8555 1.94917
lThigh  -43.2528 -2.59585 12.9721
lShin  -15.9494 43.5567 2.67633
lFoot  5.90336 -0.0688848 -11.7828
rThigh  12.763 -13.4397 3.16757
rShin  36.2888 13.6159 11.3009
rFoot  -16.4757 3.03467 4.26518
1702
root  5.12786 36.3066 -7.82966 100.188 -1.57338 86.4235
abdomen  -1.8834 -0.511077 -6.5123
chest  -1.95282 -0.636964 -4.13737
neckDummy  9.09964e-021 0 8.72668e-016
neck  -6.3983 9.9869 -2.99339
head  -8.05933 -18.1775 -11.3838
figureHair  0 1.51661e-021 -9.5315e-016
lCollar  -5.15695e-016 -6.42944e-016 -7.59357e-014
lShldr  10.5959 10.3346 -73.2301
lForeArm  18.819 -20.7879 -0.596558
lHand  0.254698 0.195082 5.2986
rCollar  1.7976e-016 -5.12864e-014 1.62755e-015
rShldr  -33.5708 71.3999 -9.64645
rForeArm  1.68024 1.0606 22.799
rHand  0.43203 -18.7826 2.07458
lThigh  -36.9213 -7.60854 11.9735
lShin  -15.7271 49.3073 2.964
lFoot  7.36322 -0.248556 -9.18239
rThigh  11.0151 -12.5175 4.26373
rShin  31.9484 14.2552 10.0207
rFoot  -16.2732 3.07874 4.59749
